<mxfile host="app.diagrams.net" modified="2023-10-20T10:45:42.621Z" agent="Mozilla/5.0 (Windows NT 10.0; Win64; x64) AppleWebKit/537.36 (KHTML, like Gecko) Chrome/118.0.0.0 Safari/537.36" etag="X5vQCsXacmrqUDIL5BUG" version="22.0.5" type="github">
  <diagram name="Page-1" id="9361dd3d-8414-5efd-6122-117bd74ce7a7">
    <mxGraphModel dx="3274" dy="1596" grid="1" gridSize="10" guides="1" tooltips="1" connect="1" arrows="1" fold="1" page="0" pageScale="1.5" pageWidth="826" pageHeight="1169" background="none" math="0" shadow="0">
      <root>
        <mxCell id="0" />
        <mxCell id="1" parent="0" />
        <mxCell id="BIsx5rSYDtpPCg-pWCxZ-103" style="edgeStyle=orthogonalEdgeStyle;rounded=0;orthogonalLoop=1;jettySize=auto;html=1;exitX=0.5;exitY=0.5;exitDx=0;exitDy=0;exitPerimeter=0;entryX=0;entryY=0.5;entryDx=0;entryDy=0;" edge="1" parent="1" source="BIsx5rSYDtpPCg-pWCxZ-134">
          <mxGeometry relative="1" as="geometry">
            <mxPoint x="-1245" y="-660" as="sourcePoint" />
            <mxPoint x="-1100" y="-695" as="targetPoint" />
          </mxGeometry>
        </mxCell>
        <mxCell id="BIsx5rSYDtpPCg-pWCxZ-129" style="edgeStyle=orthogonalEdgeStyle;rounded=0;orthogonalLoop=1;jettySize=auto;html=1;entryX=0;entryY=0.5;entryDx=0;entryDy=0;" edge="1" parent="1" source="BIsx5rSYDtpPCg-pWCxZ-134">
          <mxGeometry relative="1" as="geometry">
            <mxPoint x="-1245" y="-660" as="sourcePoint" />
            <mxPoint x="-970" y="-535" as="targetPoint" />
          </mxGeometry>
        </mxCell>
        <mxCell id="BIsx5rSYDtpPCg-pWCxZ-127" style="edgeStyle=orthogonalEdgeStyle;rounded=0;orthogonalLoop=1;jettySize=auto;html=1;entryX=1;entryY=0.5;entryDx=0;entryDy=0;" edge="1" parent="1" source="BIsx5rSYDtpPCg-pWCxZ-126">
          <mxGeometry relative="1" as="geometry">
            <mxPoint x="-990" y="-695" as="targetPoint" />
          </mxGeometry>
        </mxCell>
        <mxCell id="BIsx5rSYDtpPCg-pWCxZ-126" value="Деканат" style="shape=umlActor;verticalLabelPosition=bottom;verticalAlign=top;html=1;" vertex="1" parent="1">
          <mxGeometry x="-830" y="-770" width="70" height="120" as="geometry" />
        </mxCell>
        <mxCell id="BIsx5rSYDtpPCg-pWCxZ-137" style="edgeStyle=orthogonalEdgeStyle;rounded=0;orthogonalLoop=1;jettySize=auto;html=1;exitX=1;exitY=1;exitDx=0;exitDy=0;exitPerimeter=0;entryX=0;entryY=0.75;entryDx=0;entryDy=0;" edge="1" parent="1" source="BIsx5rSYDtpPCg-pWCxZ-134">
          <mxGeometry relative="1" as="geometry">
            <mxPoint x="-1210" y="-422.5" as="targetPoint" />
          </mxGeometry>
        </mxCell>
        <mxCell id="BIsx5rSYDtpPCg-pWCxZ-148" style="edgeStyle=orthogonalEdgeStyle;rounded=0;orthogonalLoop=1;jettySize=auto;html=1;" edge="1" parent="1">
          <mxGeometry relative="1" as="geometry">
            <mxPoint x="-1287.5" y="-635" as="sourcePoint" />
            <mxPoint x="-1022.5" y="-490" as="targetPoint" />
            <Array as="points">
              <mxPoint x="-1287" y="-634" />
              <mxPoint x="-1160" y="-634" />
              <mxPoint x="-1160" y="-490" />
            </Array>
          </mxGeometry>
        </mxCell>
        <mxCell id="BIsx5rSYDtpPCg-pWCxZ-134" value="Студент" style="shape=umlActor;verticalLabelPosition=bottom;verticalAlign=top;html=1;" vertex="1" parent="1">
          <mxGeometry x="-1350" y="-700" width="60" height="130" as="geometry" />
        </mxCell>
        <mxCell id="BIsx5rSYDtpPCg-pWCxZ-144" style="edgeStyle=orthogonalEdgeStyle;rounded=0;orthogonalLoop=1;jettySize=auto;html=1;exitX=1;exitY=0.3333333333333333;exitDx=0;exitDy=0;exitPerimeter=0;" edge="1" parent="1" source="BIsx5rSYDtpPCg-pWCxZ-139">
          <mxGeometry relative="1" as="geometry">
            <mxPoint x="-1155" y="-410" as="targetPoint" />
          </mxGeometry>
        </mxCell>
        <mxCell id="BIsx5rSYDtpPCg-pWCxZ-146" style="edgeStyle=orthogonalEdgeStyle;rounded=0;orthogonalLoop=1;jettySize=auto;html=1;exitX=0.833;exitY=0.346;exitDx=0;exitDy=0;exitPerimeter=0;" edge="1" parent="1" source="BIsx5rSYDtpPCg-pWCxZ-139">
          <mxGeometry relative="1" as="geometry">
            <mxPoint x="-975" y="-330" as="targetPoint" />
            <Array as="points">
              <mxPoint x="-1320" y="-335" />
              <mxPoint x="-1060" y="-335" />
              <mxPoint x="-1060" y="-340" />
              <mxPoint x="-975" y="-340" />
            </Array>
          </mxGeometry>
        </mxCell>
        <mxCell id="BIsx5rSYDtpPCg-pWCxZ-139" value="Преподаватель" style="shape=umlActor;verticalLabelPosition=bottom;verticalAlign=top;html=1;" vertex="1" parent="1">
          <mxGeometry x="-1370" y="-400" width="60" height="130" as="geometry" />
        </mxCell>
        <mxCell id="BIsx5rSYDtpPCg-pWCxZ-149" value="Допуск на экзамен" style="ellipse;whiteSpace=wrap;html=1;" vertex="1" parent="1">
          <mxGeometry x="-1120" y="-730" width="140" height="70" as="geometry" />
        </mxCell>
        <mxCell id="BIsx5rSYDtpPCg-pWCxZ-150" value="Получение билета" style="ellipse;whiteSpace=wrap;html=1;" vertex="1" parent="1">
          <mxGeometry x="-990" y="-580" width="140" height="70" as="geometry" />
        </mxCell>
        <mxCell id="BIsx5rSYDtpPCg-pWCxZ-151" value="Получение оценки" style="ellipse;whiteSpace=wrap;html=1;" vertex="1" parent="1">
          <mxGeometry x="-1070" y="-500" width="140" height="70" as="geometry" />
        </mxCell>
        <mxCell id="BIsx5rSYDtpPCg-pWCxZ-152" value="Вызов на собеседование" style="ellipse;whiteSpace=wrap;html=1;" vertex="1" parent="1">
          <mxGeometry x="-1240" y="-460" width="140" height="70" as="geometry" />
        </mxCell>
        <mxCell id="BIsx5rSYDtpPCg-pWCxZ-153" value="Оценка знаний" style="ellipse;whiteSpace=wrap;html=1;" vertex="1" parent="1">
          <mxGeometry x="-1020" y="-360" width="140" height="70" as="geometry" />
        </mxCell>
      </root>
    </mxGraphModel>
  </diagram>
</mxfile>
